<mxfile host="app.diagrams.net" modified="2023-08-10T08:35:30.604Z" agent="Mozilla/5.0 (Macintosh; Intel Mac OS X 10_15_7) AppleWebKit/605.1.15 (KHTML, like Gecko) Version/16.6 Safari/605.1.15" version="21.6.7" etag="EwDTr7mO7vGNYQz0tViC" type="github">
  <diagram name="Page-1" id="2i3m8kltYyu7kxJy7IRQ">
    <mxGraphModel>
      <root>
        <mxCell id="0" />
        <mxCell id="1" parent="0" />
      </root>
    </mxGraphModel>
  </diagram>
</mxfile>
